HIERARCHY
ROOT hip
{
	OFFSET 0.000000 0.000000 0.000000 
	CHANNELS 6 Xposition Yposition Zposition Xrotation Zrotation Yrotation
	JOINT abdomen
	{
		OFFSET 0.000000 3.402643 0.000000 
		CHANNELS 3 Xrotation Zrotation Yrotation
		JOINT chest
		{
			OFFSET 0.000000 8.438565 -0.680529 
			CHANNELS 3 Xrotation Zrotation Yrotation
			JOINT neck
			{
				OFFSET 0.000000 10.207942 -0.272212 
				CHANNELS 3 Xrotation Zrotation Yrotation
				JOINT head
				{
					OFFSET 0.000000 3.130431 0.000000 
					CHANNELS 3 Xrotation Zrotation Yrotation
					End Site
					{
						OFFSET 0.000000 3.130435 0.000000 
					}
				}
			}
			JOINT lCollar
			{
				OFFSET 3.470700 6.669187 -0.816635 
				CHANNELS 3 Yrotation Zrotation Xrotation
				JOINT lShldr
				{
					OFFSET 3.198488 0.000000 0.000000 
					CHANNELS 3 Zrotation Yrotation Xrotation
					JOINT lForeArm
					{
						OFFSET 10.139888 0.000000 0.000000 
						CHANNELS 3 Yrotation Zrotation Xrotation
						JOINT lHand
						{
							OFFSET 8.370511 0.000000 0.000000 
							CHANNELS 3 Zrotation Yrotation Xrotation
							End Site
							{
								OFFSET 4.083176 0.000000 0.000000 
							}
						}
					}
				}
			}
			JOINT rCollar
			{
				OFFSET -3.470700 6.669187 -0.816635 
				CHANNELS 3 Yrotation Zrotation Xrotation
				JOINT rShldr
				{
					OFFSET -3.198488 0.000000 0.000000 
					CHANNELS 3 Zrotation Yrotation Xrotation
					JOINT rForeArm
					{
						OFFSET -10.139888 0.000000 0.000000 
						CHANNELS 3 Yrotation Zrotation Xrotation
						JOINT rHand
						{
							OFFSET -8.370511 0.000000 0.000000 
							CHANNELS 3 Zrotation Yrotation Xrotation
							End Site
							{
								OFFSET -4.083176 0.000000 0.000000 
							}
						}
					}
				}
			}
		}
	}
	JOINT lThigh
	{
		OFFSET 5.308129 -1.633274 1.361059 
		CHANNELS 3 Xrotation Zrotation Yrotation
		JOINT lShin
		{
			OFFSET -2.041588 -20.007561 0.000000 
			CHANNELS 3 Xrotation Zrotation Yrotation
			JOINT lFoot
			{
				OFFSET 0.000000 -19.190928 -1.224953 
				CHANNELS 3 Xrotation Yrotation Zrotation
				End Site
				{
					OFFSET 0.000000 -2.449906 4.627600 
				}
			}
		}
	}
	JOINT rThigh
	{
		OFFSET -5.308129 -1.633274 1.361059 
		CHANNELS 3 Xrotation Zrotation Yrotation
		JOINT rShin
		{
			OFFSET 2.041588 -20.007561 0.000000 
			CHANNELS 3 Xrotation Zrotation Yrotation
			JOINT rFoot
			{
				OFFSET 0.000000 -19.190928 -1.224953 
				CHANNELS 3 Xrotation Yrotation Zrotation
				End Site
				{
					OFFSET 0.000000 -2.449906 4.627600 
				}
			}
		}
	}
}
MOTION
Frames: 14
Frame Time: 0.033333
1.641670 43.013256 -3.260450 -9.182837 1.494282 1.936284 0.000000 0.000000 0.000000 10.193718 -5.488694 13.838721 -28.035952 0.719482 -12.181379 31.171934 -0.126248 -9.212648 -3.519355 9.157742 6.311733 -96.069366 -0.296399 14.312078 -98.221718 -9.433148 -58.810860 6.566432 6.860343 -8.481421 3.090466 -14.082293 8.028685 78.412071 71.013145 -29.269321 11.150617 -2.977554 2.587110 8.218461 0.922443 -7.074829 -19.343103 29.261265 12.522129 66.637016 -1.422932 -41.021698 -16.258932 -5.180893 25.553270 -19.374470 -36.549423 -17.062449 63.538662 -5.230167 24.062738 -18.890348 3.176458 -14.824372 
1.665089 43.039234 -3.275780 -9.309098 1.310640 1.904377 0.000000 0.000000 0.000000 12.112206 -5.729814 18.312918 -29.498695 0.929761 -13.771931 31.926620 -0.860905 -10.332200 -3.519355 9.157742 6.311733 -98.000999 3.371174 13.841698 -99.167999 -8.780440 -59.236053 7.479563 6.333621 -8.539472 3.090466 -14.082293 8.028685 55.797287 71.754158 -49.319195 9.754853 -6.390575 25.134262 4.336872 -0.698864 -7.673368 -19.254135 29.317324 12.435252 66.627167 -1.354578 -40.940788 -16.285757 -5.185011 25.573385 -19.100973 -36.489418 -17.351362 63.343105 -5.103855 24.360483 -18.612545 3.131664 -14.810956 
1.697357 43.058537 -3.303411 -9.308991 1.281729 2.202083 0.000000 0.000000 0.000000 12.339655 -6.230804 21.100380 -31.703644 1.331179 -15.776847 33.221584 -2.148681 -11.619041 -3.519355 9.157742 6.311733 -98.096825 5.453445 13.503080 -98.753181 -8.533776 -59.807716 6.555335 4.059652 -8.459976 3.090466 -14.082293 8.028685 39.832596 69.033638 -59.174015 9.348737 -6.881021 62.051628 0.058672 -6.002742 -8.410809 -19.471424 29.205879 12.169111 66.586739 -1.297176 -40.416451 -16.300562 -5.186020 25.551146 -18.827896 -36.609974 -17.710316 63.168938 -5.006342 24.516771 -18.398363 3.088301 -14.763920 
1.717182 43.067577 -3.350963 -9.103561 1.195689 2.708852 0.000000 0.000000 0.000000 11.739866 -7.029104 22.751200 -33.556240 2.299538 -17.950840 34.016979 -3.546922 -12.680158 -3.519355 9.157742 6.311733 -98.643295 6.676461 11.328038 -98.435966 -8.870572 -60.295631 3.330835 3.243089 -8.198898 3.090466 -14.082293 8.028685 26.442947 65.099083 -62.932728 7.345700 -2.041837 95.657562 -2.091479 -9.777424 -8.752952 -20.046999 29.185312 11.818673 66.555176 -1.279595 -40.012032 -16.299589 -5.183234 25.508432 -18.710688 -36.558327 -17.905210 63.125092 -4.941561 24.153215 -18.486376 3.093287 -14.695855 
1.745950 43.056744 -3.379305 -8.791252 1.273923 3.308911 0.000000 0.000000 0.000000 11.281677 -7.586683 23.382923 -34.087971 2.816552 -18.891104 34.120945 -3.746752 -13.046432 -3.519355 9.157742 6.311733 -99.871590 7.344663 7.802616 -98.686462 -9.760507 -60.267487 0.614749 3.044057 -7.983217 3.090466 -14.082293 8.028685 19.062180 62.866829 -62.688057 4.654963 1.244789 105.583405 -3.054074 -10.868759 -8.795377 -20.712042 29.070139 11.570880 66.608322 -1.314251 -40.295738 -16.038443 -5.084370 25.342710 -18.710411 -36.685493 -18.068914 63.187363 -4.957035 23.364796 -18.798506 3.125207 -14.662869 
1.763315 43.054096 -3.371166 -8.801697 1.457252 3.807663 0.000000 0.000000 0.000000 11.340600 -7.939675 23.519588 -34.587872 2.996226 -19.196692 34.508419 -3.919272 -13.141789 -3.519355 9.157742 6.311733 -100.667488 6.955604 5.578549 -98.387299 -10.193807 -59.713661 -0.821902 3.366313 -7.886574 3.090466 -14.082293 8.028685 17.012693 62.336044 -61.823246 5.011379 1.631422 103.884644 -3.544369 -10.976522 -8.801180 -20.865505 28.918358 11.625567 66.650955 -1.349646 -41.336475 -15.812918 -5.024522 25.320999 -18.378696 -36.833900 -18.196692 63.221371 -5.076719 22.586027 -18.910103 3.122065 -14.633488 
1.768235 43.028496 -3.361419 -8.909634 1.572600 4.157889 0.000000 0.000000 0.000000 11.523795 -8.135715 23.453367 -34.770069 3.118856 -19.263834 34.483742 -4.333544 -13.115728 -3.519355 9.157742 6.311733 -101.014862 6.114686 4.397621 -98.070053 -10.838627 -59.998390 -1.225919 3.221095 -7.834230 3.090466 -14.082293 8.028685 15.761415 62.091850 -63.281940 4.975528 1.973399 105.964531 -3.596042 -10.273573 -8.773218 -20.925823 28.941181 11.690244 66.791931 -1.375374 -42.200680 -16.023111 -5.112132 25.525385 -18.105370 -36.852974 -18.212887 63.338272 -5.165363 22.080978 -18.917627 3.126854 -14.575540 
1.772210 42.972996 -3.329245 -8.988443 1.716948 4.425848 0.000000 0.000000 0.000000 11.769176 -8.090359 23.006807 -34.806465 2.987198 -18.879892 34.381989 -4.495763 -12.910398 -3.519355 9.157742 6.311733 -100.619537 5.354490 4.481446 -97.863457 -11.052940 -60.793465 0.102598 2.824808 -7.924551 3.090466 -14.082293 8.028685 14.789098 62.263474 -63.993450 4.792370 2.190308 106.660149 -3.994611 -10.812277 -8.799745 -20.975515 28.913908 11.723525 66.993813 -1.388217 -42.475418 -16.083427 -5.145647 25.597729 -17.919542 -37.053776 -18.294361 63.573753 -5.244025 21.887314 -19.151747 3.145472 -14.603167 
1.782240 42.912292 -3.298066 -9.115134 1.648846 4.462162 0.000000 0.000000 0.000000 11.965790 -8.065480 22.836857 -35.181770 3.169791 -18.888222 34.530094 -4.771641 -12.784626 -3.519355 9.157742 6.311733 -100.132988 4.770811 5.309040 -98.048164 -10.974207 -61.508202 1.863471 2.793604 -8.060737 3.090466 -14.082293 8.028685 14.606520 62.145233 -63.994678 4.754524 2.206011 106.582626 -4.341867 -11.363472 -8.820233 -20.976606 29.052427 11.682365 67.284157 -1.334463 -42.599918 -16.154619 -5.184968 25.667097 -17.792799 -37.095276 -18.356436 63.748970 -5.233941 21.957277 -19.335928 3.194386 -14.657163 
1.805994 42.854565 -3.275874 -9.192854 1.552082 4.241128 0.000000 0.000000 0.000000 12.002934 -7.987901 22.935368 -35.169975 3.207799 -18.753309 34.533230 -4.604383 -12.636193 -3.519355 9.157742 6.311733 -100.369270 4.703599 4.911858 -98.239220 -11.313577 -62.220566 2.281131 2.841636 -8.099121 3.090466 -14.082293 8.028685 14.893297 61.902332 -63.831581 4.764528 2.119776 105.937836 -4.127723 -11.471848 -8.820874 -20.924128 29.152660 11.673108 67.580040 -1.300167 -42.367157 -16.289986 -5.238543 25.775532 -17.909849 -37.143600 -18.318352 63.920681 -5.202556 22.201815 -19.439064 3.229316 -14.717263 
1.832489 42.799732 -3.242186 -9.212144 1.494158 3.947239 0.000000 0.000000 0.000000 11.899606 -7.828327 22.974451 -35.092991 3.046158 -18.437561 34.591072 -4.320823 -12.484808 -3.519355 9.157742 6.311733 -100.703568 4.910273 4.240762 -97.713089 -11.325961 -61.731060 1.575679 3.088895 -8.058767 3.090466 -14.082293 8.028685 15.299122 61.943581 -63.828030 4.875698 1.895624 105.789612 -4.004081 -11.365915 -8.811782 -20.836082 29.201223 11.684891 67.826813 -1.278288 -42.149292 -16.479578 -5.278293 25.850513 -18.134438 -37.242832 -18.254652 64.118301 -5.212670 22.442953 -19.570883 3.257439 -14.781364 
1.852361 42.759651 -3.201683 -9.318866 1.310603 3.652201 0.000000 0.000000 0.000000 11.951612 -7.578241 22.961321 -35.167110 3.045206 -18.297928 34.506580 -4.420675 -12.378499 -3.519355 9.157742 6.311733 -100.723671 5.117140 4.125273 -97.341660 -11.309178 -61.642048 1.648055 2.852453 -8.056380 3.090466 -14.082293 8.028685 15.619301 62.085545 -64.684898 5.066198 1.593544 106.911934 -4.040249 -11.321622 -8.810820 -20.671194 29.359434 11.631124 68.017929 -1.232983 -41.843166 -16.716316 -5.380441 26.035583 -18.153727 -37.169949 -18.235779 64.183083 -5.153082 22.725306 -19.614902 3.272183 -14.830062 
1.865277 42.735146 -3.175187 -9.435532 1.156025 3.323563 0.000000 0.000000 0.000000 12.055376 -7.412878 23.030373 -35.242706 3.147624 -18.294430 34.433968 -4.573026 -12.308646 -3.519355 9.157742 6.311733 -100.568497 5.155932 4.220570 -97.339691 -11.482033 -62.403900 2.754830 2.414256 -8.124552 3.090466 -14.082293 8.028685 15.603181 62.140045 -65.440872 5.220240 1.377620 106.990669 -3.793168 -10.764554 -8.796686 -20.467232 29.498173 11.647106 68.186798 -1.180903 -41.563759 -16.854496 -5.440191 26.130373 -18.212029 -37.112305 -18.205238 64.224442 -5.124216 23.040159 -19.629648 3.293493 -14.884203 
1.884723 42.722366 -3.144482 -9.464770 1.136661 3.091807 0.000000 0.000000 0.000000 11.984628 -7.347887 23.004454 -35.268150 3.255549 -18.331335 34.594749 -4.672320 -12.274635 -3.519355 9.157742 6.311733 -100.564491 5.083504 4.050515 -97.178322 -11.555224 -62.529869 2.777910 2.318861 -8.123919 3.090466 -14.082293 8.028685 15.550759 62.139591 -65.421318 5.229480 1.378569 107.010201 -3.713916 -10.901479 -8.802238 -20.291698 29.499136 11.732460 68.257881 -1.169579 -41.352333 -16.945541 -5.471546 26.193260 -18.271255 -37.183693 -18.201675 64.248047 -5.117269 23.237247 -19.674829 3.297273 -14.917006 
